<svg width="30" height="38" viewBox="0 0 30 38" fill="none" xmlns="http://www.w3.org/2000/svg">
<g filter="url(#filter0_b_0_239)">
<path d="M20.3561 22H9.38746C8.22384 22 7.10787 21.5378 6.28506 20.7149C5.46225 19.8921 5 18.7762 5 17.6125V10.7111C4.99998 9.95665 5.19449 9.21498 5.56474 8.55768C5.93499 7.90038 6.46847 7.34965 7.11366 6.95868L12.598 3.63518C13.2837 3.21968 14.0701 3 14.8718 3C15.6735 3 16.4599 3.21968 17.1456 3.63518L22.6299 6.95868C23.275 7.34956 23.8083 7.90011 24.1786 8.5572C24.5488 9.2143 24.7434 9.95574 24.7436 10.71V17.6125C24.7436 18.7762 24.2813 19.8921 23.4585 20.7149C22.6357 21.5378 21.5197 22 20.3561 22Z" fill="#D86191"/>
<path d="M11.5812 17.6114H18.1624" stroke="white" stroke-linecap="round" stroke-linejoin="round"/>
</g>
<path d="M7.64475 32.576L7.68075 35H6.44475L6.50475 32.684L6.49275 31.64L4.52475 31.628L2.72475 31.64L2.71275 32.576L2.76075 35H1.53675L1.58475 32.684L1.53675 27.296H2.77275L2.73675 30.608L4.62075 30.632L6.48075 30.608L6.44475 27.296H7.70475L7.64475 32.576ZM11.5318 29.36C12.3078 29.36 12.9038 29.604 13.3198 30.092C13.7438 30.572 13.9558 31.256 13.9558 32.144C13.9558 33.096 13.7318 33.828 13.2838 34.34C12.8358 34.852 12.1998 35.108 11.3758 35.108C10.5998 35.108 9.99981 34.868 9.57581 34.388C9.15981 33.9 8.95181 33.212 8.95181 32.324C8.95181 31.372 9.17581 30.64 9.62381 30.128C10.0718 29.616 10.7078 29.36 11.5318 29.36ZM11.4598 30.212C10.5478 30.212 10.0918 30.828 10.0918 32.06C10.0918 32.812 10.2038 33.368 10.4278 33.728C10.6518 34.088 10.9958 34.268 11.4598 34.268C11.9158 34.268 12.2558 34.116 12.4798 33.812C12.7038 33.508 12.8158 33.044 12.8158 32.42C12.8158 31.668 12.7038 31.112 12.4798 30.752C12.2558 30.392 11.9158 30.212 11.4598 30.212ZM22.0243 31.364C22.0323 31.06 21.9603 30.824 21.8083 30.656C21.6643 30.48 21.4523 30.392 21.1723 30.392C20.7163 30.392 20.2443 30.624 19.7563 31.088L19.7323 32.576L19.7923 35H18.5563L18.6403 31.364C18.6483 31.06 18.5763 30.824 18.4243 30.656C18.2803 30.48 18.0683 30.392 17.7883 30.392C17.3243 30.392 16.8443 30.632 16.3483 31.112L16.3363 32.576L16.4083 35H15.1843L15.2563 32.684L15.1963 29.552L16.3603 29.444L16.3483 30.248H16.4323C16.9043 29.832 17.3963 29.548 17.9083 29.396C18.3563 29.396 18.7243 29.476 19.0123 29.636C19.3083 29.788 19.5163 30.008 19.6363 30.296H19.7083C20.1963 29.872 20.7243 29.572 21.2923 29.396C21.9083 29.396 22.3723 29.536 22.6843 29.816C23.0043 30.096 23.1603 30.496 23.1523 31.016L23.1163 32.576L23.1763 35H21.9523L22.0243 31.364ZM28.8851 32.288L25.5131 32.3C25.5211 32.908 25.6691 33.372 25.9571 33.692C26.2451 34.004 26.6531 34.16 27.1811 34.16C27.7331 34.16 28.2731 33.996 28.8011 33.668L28.9211 33.74L28.7411 34.724C28.1571 34.98 27.5891 35.108 27.0371 35.108C26.2131 35.108 25.5651 34.856 25.0931 34.352C24.6291 33.84 24.3971 33.144 24.3971 32.264C24.3971 31.376 24.6291 30.672 25.0931 30.152C25.5571 29.632 26.1851 29.372 26.9771 29.372C27.6491 29.372 28.1651 29.556 28.5251 29.924C28.8931 30.292 29.0771 30.812 29.0771 31.484C29.0771 31.668 29.0571 31.888 29.0171 32.144L28.8851 32.288ZM27.9731 31.34C27.9731 30.964 27.8851 30.68 27.7091 30.488C27.5411 30.296 27.2931 30.2 26.9651 30.2C26.5971 30.2 26.2931 30.32 26.0531 30.56C25.8131 30.792 25.6531 31.124 25.5731 31.556L27.9491 31.508L27.9731 31.34Z" fill="#D86191"/>
<defs>
<filter id="filter0_b_0_239" x="-3" y="-6" width="36" height="36" filterUnits="userSpaceOnUse" color-interpolation-filters="sRGB">
<feFlood flood-opacity="0" result="BackgroundImageFix"/>
<feGaussianBlur in="BackgroundImage" stdDeviation="3"/>
<feComposite in2="SourceAlpha" operator="in" result="effect1_backgroundBlur_0_239"/>
<feBlend mode="normal" in="SourceGraphic" in2="effect1_backgroundBlur_0_239" result="shape"/>
</filter>
</defs>
</svg>
