<svg width="100%" height="100%" viewBox="0 0 375 812" fill="none" xmlns="http://www.w3.org/2000/svg">
<rect width="375" height="812" fill="url(#paint0_linear_1903_4)"/>
<circle cx="32.5" cy="697.5" r="5.5" fill="white"/>
<circle cx="375.087" cy="557.029" r="5.5" transform="rotate(126.468 375.087 557.029)" fill="white"/>
<circle cx="59" cy="660" r="2" fill="white"/>
<circle cx="296.988" cy="15.5324" r="3.99052" transform="rotate(108.48 296.988 15.5324)" fill="white"/>
<circle cx="96.5" cy="714.5" r="2.5" fill="white"/>
<circle cx="323.375" cy="598.392" r="2.5" transform="rotate(126.468 323.375 598.392)" fill="white"/>
<circle cx="230.893" cy="35.0802" r="2.5" transform="rotate(108.48 230.893 35.0802)" fill="white"/>
<circle cx="46" cy="79" r="29.6809" stroke="#E7B0C9" stroke-width="0.638298"/>
<circle cx="46" cy="79" r="23.2979" stroke="#E7B0C9" stroke-width="0.638298"/>
<circle cx="46" cy="79" r="26.4894" stroke="#E7B0C9" stroke-width="0.638298"/>
<path d="M36.5893 96.121C36.5893 96.121 36.494 95.7942 36.3033 95.1406C36.1399 94.487 35.8948 93.5883 35.568 92.4444C35.2684 91.3006 34.9144 89.9934 34.5059 88.5227C34.0974 87.0521 33.648 85.4861 33.1578 83.8249C32.6948 82.1636 32.2046 80.4887 31.6872 78.8002C31.197 77.1117 30.7067 75.4912 30.2165 73.9389C29.9714 73.1219 29.5765 72.5227 29.0319 72.1414C28.5144 71.7602 27.7927 71.5559 26.8667 71.5287C26.8395 71.5014 26.8259 71.4742 26.8259 71.447C26.7987 71.3925 26.7714 71.3517 26.7442 71.3244L27.0302 69.241C27.0302 69.241 27.3161 69.2546 27.888 69.2819C28.4872 69.3091 29.168 69.3363 29.9306 69.3636C30.6931 69.3636 31.3195 69.3636 31.8097 69.3636C32.8446 69.3636 33.825 69.3363 34.751 69.2819C35.7042 69.2002 36.494 69.1321 37.1204 69.0776C37.7467 68.9959 38.0599 68.9551 38.0599 68.9551L38.2233 69.2819L38.0191 71.2427C37.1204 71.2972 36.4259 71.3925 35.9357 71.5287C35.4727 71.6376 35.1459 71.801 34.9553 72.0189C34.7919 72.2095 34.7102 72.4819 34.7102 72.8359C34.7102 73.081 34.7919 73.5849 34.9553 74.3474C35.1187 75.11 35.3229 76.0359 35.568 77.1253C35.8404 78.2146 36.1399 79.3857 36.4667 80.6385C36.7936 81.8912 37.1067 83.1304 37.4063 84.3559C37.7331 85.5542 38.0191 86.6572 38.2642 87.6649C38.5365 88.6453 38.7408 89.4351 38.877 90.0342C39.0404 90.6061 39.1221 90.8921 39.1221 90.8921H39.5306C39.8302 90.0751 40.1433 89.19 40.4702 88.2368C40.8242 87.2563 41.1782 86.2351 41.5323 85.1729C41.9136 84.1108 42.2812 83.0351 42.6353 81.9457C42.9893 80.8291 43.3433 79.7397 43.6974 78.6776C44.0514 77.6155 44.3919 76.6078 44.7187 75.6546C44.637 75.3006 44.5553 74.9602 44.4736 74.6334C44.3919 74.2793 44.2965 73.9389 44.1876 73.6121C43.9697 72.8495 43.5884 72.3185 43.0438 72.0189C42.5263 71.7193 41.7774 71.5559 40.797 71.5287L40.6336 71.3244L40.9604 69.241C40.9604 69.241 41.1374 69.2546 41.4914 69.2819C41.8727 69.2819 42.3357 69.2955 42.8804 69.3227C43.425 69.3227 43.9833 69.3363 44.5553 69.3636C45.1272 69.3636 45.6038 69.3636 45.985 69.3636C46.8838 69.3636 47.8097 69.3363 48.7629 69.2819C49.7433 69.2002 50.5604 69.1321 51.214 69.0776C51.8948 68.9959 52.2353 68.9551 52.2353 68.9551L52.3987 69.2819L52.1944 71.2427C51.2957 71.2972 50.6012 71.3789 50.111 71.4878C49.648 71.5968 49.3212 71.7602 49.1306 71.978C48.9672 72.1959 48.8855 72.4955 48.8855 72.8768C48.8855 73.0946 48.9536 73.5712 49.0897 74.3066C49.2531 75.0419 49.471 75.9678 49.7433 77.0844C50.0157 78.1738 50.3016 79.3449 50.6012 80.5976C50.928 81.8232 51.2412 83.0487 51.5408 84.2742C51.8676 85.4725 52.1672 86.5755 52.4395 87.5832C52.7119 88.5908 52.9297 89.3942 53.0931 89.9934C53.2565 90.5925 53.3382 90.8921 53.3382 90.8921H53.7059C53.9782 90.1568 54.305 89.2444 54.6863 88.1551C55.0676 87.0385 55.4761 85.8402 55.9119 84.5602C56.3748 83.2529 56.8242 81.9593 57.2599 80.6793C57.6957 79.3721 58.0906 78.1602 58.4446 77.0436C58.7987 75.8997 59.0846 74.9466 59.3025 74.184C59.5204 73.3942 59.6293 72.904 59.6293 72.7134C59.6293 72.2232 59.4387 71.8827 59.0574 71.6921C58.6761 71.5014 58.0361 71.4061 57.1374 71.4061H55.3399L55.1765 71.2019L55.5033 69.1185C55.5033 69.1185 55.8029 69.1457 56.4021 69.2002C57.0012 69.2274 57.7365 69.2683 58.608 69.3227C59.5067 69.35 60.3919 69.3636 61.2633 69.3636C61.917 69.3636 62.5842 69.3636 63.265 69.3636C63.9459 69.3363 64.5178 69.3091 64.9808 69.2819C65.4438 69.2546 65.6753 69.241 65.6753 69.241L65.3893 71.5287C64.6812 71.5559 64.1774 71.7057 63.8778 71.978C63.5782 72.2232 63.2787 72.7406 62.9791 73.5304L55.0131 95.2632L50.7646 96.121C50.7374 95.9304 50.6012 95.3585 50.3561 94.4053C50.111 93.4521 49.7842 92.2266 49.3757 90.7287C48.9944 89.2308 48.545 87.5559 48.0276 85.704C47.5102 83.8521 46.9519 81.9457 46.3527 79.9849H46.0259L40.8787 95.2632L36.5893 96.121ZM67.5783 95.9168C66.7069 95.9168 66.0532 95.6717 65.6175 95.1814C65.1817 94.664 64.9639 94.0376 64.9639 93.3023C64.9639 92.458 65.2226 91.7636 65.74 91.2189C66.2847 90.6742 66.9792 90.4019 67.8234 90.4019C68.6949 90.4019 69.3486 90.6606 69.7843 91.178C70.2473 91.6683 70.4788 92.2946 70.4788 93.0572C70.4788 93.847 70.22 94.5278 69.7026 95.0997C69.1852 95.6444 68.4771 95.9168 67.5783 95.9168Z" fill="#FBFBFB" fill-opacity="0.5"/>
<path d="M35.7718 96.121C35.7718 96.121 35.6765 95.7942 35.4858 95.1406C35.3224 94.487 35.0773 93.5883 34.7505 92.4444C34.4509 91.3006 34.0969 89.9934 33.6884 88.5227C33.2799 87.0521 32.8305 85.4861 32.3403 83.8249C31.8773 82.1636 31.3871 80.4887 30.8697 78.8002C30.3795 77.1117 29.8892 75.4912 29.399 73.9389C29.1539 73.1219 28.759 72.5227 28.2143 72.1414C27.6969 71.7602 26.9752 71.5559 26.0492 71.5287C26.022 71.5014 26.0084 71.4742 26.0084 71.447C25.9812 71.3925 25.9539 71.3517 25.9267 71.3244L26.2126 69.241C26.2126 69.241 26.4986 69.2546 27.0705 69.2819C27.6697 69.3091 28.3505 69.3363 29.1131 69.3636C29.8756 69.3636 30.502 69.3636 30.9922 69.3636C32.0271 69.3636 33.0075 69.3363 33.9335 69.2819C34.8867 69.2002 35.6765 69.1321 36.3029 69.0776C36.9292 68.9959 37.2424 68.9551 37.2424 68.9551L37.4058 69.2819L37.2016 71.2427C36.3029 71.2972 35.6084 71.3925 35.1182 71.5287C34.6552 71.6376 34.3284 71.801 34.1378 72.0189C33.9743 72.2095 33.8926 72.4819 33.8926 72.8359C33.8926 73.081 33.9743 73.5849 34.1378 74.3474C34.3012 75.11 34.5054 76.0359 34.7505 77.1253C35.0229 78.2146 35.3224 79.3857 35.6492 80.6385C35.9761 81.8912 36.2892 83.1304 36.5888 84.3559C36.9156 85.5542 37.2016 86.6572 37.4467 87.6649C37.719 88.6453 37.9233 89.4351 38.0595 90.0342C38.2229 90.6061 38.3046 90.8921 38.3046 90.8921H38.7131C39.0126 90.0751 39.3258 89.19 39.6526 88.2368C40.0067 87.2563 40.3607 86.2351 40.7148 85.1729C41.0961 84.1108 41.4637 83.0351 41.8178 81.9457C42.1718 80.8291 42.5258 79.7397 42.8799 78.6776C43.2339 77.6155 43.5743 76.6078 43.9012 75.6546C43.8195 75.3006 43.7378 74.9602 43.6561 74.6334C43.5743 74.2793 43.479 73.9389 43.3701 73.6121C43.1522 72.8495 42.7709 72.3185 42.2263 72.0189C41.7088 71.7193 40.9599 71.5559 39.9795 71.5287L39.8161 71.3244L40.1429 69.241C40.1429 69.241 40.3199 69.2546 40.6739 69.2819C41.0552 69.2819 41.5182 69.2955 42.0629 69.3227C42.6075 69.3227 43.1658 69.3363 43.7378 69.3636C44.3097 69.3636 44.7863 69.3636 45.1675 69.3636C46.0663 69.3636 46.9922 69.3363 47.9454 69.2819C48.9258 69.2002 49.7429 69.1321 50.3965 69.0776C51.0773 68.9959 51.4178 68.9551 51.4178 68.9551L51.5812 69.2819L51.3769 71.2427C50.4782 71.2972 49.7837 71.3789 49.2935 71.4878C48.8305 71.5968 48.5037 71.7602 48.3131 71.978C48.1497 72.1959 48.068 72.4955 48.068 72.8768C48.068 73.0946 48.1361 73.5712 48.2722 74.3066C48.4356 75.0419 48.6535 75.9678 48.9258 77.0844C49.1982 78.1738 49.4841 79.3449 49.7837 80.5976C50.1105 81.8232 50.4237 83.0487 50.7233 84.2742C51.0501 85.4725 51.3497 86.5755 51.622 87.5832C51.8943 88.5908 52.1122 89.3942 52.2756 89.9934C52.439 90.5925 52.5207 90.8921 52.5207 90.8921H52.8884C53.1607 90.1568 53.4875 89.2444 53.8688 88.1551C54.2501 87.0385 54.6586 85.8402 55.0943 84.5602C55.5573 83.2529 56.0067 81.9593 56.4424 80.6793C56.8782 79.3721 57.2731 78.1602 57.6271 77.0436C57.9812 75.8997 58.2671 74.9466 58.485 74.184C58.7029 73.3942 58.8118 72.904 58.8118 72.7134C58.8118 72.2232 58.6212 71.8827 58.2399 71.6921C57.8586 71.5014 57.2186 71.4061 56.3199 71.4061H54.5224L54.359 71.2019L54.6858 69.1185C54.6858 69.1185 54.9854 69.1457 55.5846 69.2002C56.1837 69.2274 56.919 69.2683 57.7905 69.3227C58.6892 69.35 59.5744 69.3636 60.4458 69.3636C61.0995 69.3636 61.7667 69.3636 62.4475 69.3636C63.1284 69.3363 63.7003 69.3091 64.1633 69.2819C64.6263 69.2546 64.8578 69.241 64.8578 69.241L64.5718 71.5287C63.8637 71.5559 63.3599 71.7057 63.0603 71.978C62.7607 72.2232 62.4612 72.7406 62.1616 73.5304L54.1956 95.2632L49.9471 96.121C49.9199 95.9304 49.7837 95.3585 49.5386 94.4053C49.2935 93.4521 48.9667 92.2266 48.5582 90.7287C48.1769 89.2308 47.7275 87.5559 47.2101 85.704C46.6926 83.8521 46.1343 81.9457 45.5352 79.9849H45.2084L40.0612 95.2632L35.7718 96.121ZM66.7608 95.9168C65.8893 95.9168 65.2357 95.6717 64.8 95.1814C64.3642 94.664 64.1464 94.0376 64.1464 93.3023C64.1464 92.458 64.4051 91.7636 64.9225 91.2189C65.4672 90.6742 66.1617 90.4019 67.0059 90.4019C67.8774 90.4019 68.5311 90.6606 68.9668 91.178C69.4298 91.6683 69.6613 92.2946 69.6613 93.0572C69.6613 93.847 69.4025 94.5278 68.8851 95.0997C68.3676 95.6444 67.6596 95.9168 66.7608 95.9168Z" fill="#FBFBFB"/>
<defs>
<linearGradient id="paint0_linear_1903_4" x1="187.5" y1="-185.5" x2="187.5" y2="920.5" gradientUnits="userSpaceOnUse">
<stop stop-color="#E75481"/>
<stop offset="1" stop-color="#929CDE"/>
</linearGradient>
</defs>
</svg>
