<svg width="15" height="17" viewBox="0 0 15 17" fill="none" xmlns="http://www.w3.org/2000/svg">
<path d="M2.90778 5.00997C3.92419 4.59868 4.46792 3.46914 4.05502 2.44872C3.64332 1.43232 0.879437 -0.000167847 0.879437 -0.000167847C0.879437 -0.000167847 -0.112588 2.95297 0.298841 3.96909C0.711882 4.98964 1.88843 5.42264 2.90778 5.00984V5.00997Z" fill="white"/>
<path d="M7.16469 11.0288C7.16469 11.0288 6.14442 13.9035 6.55571 14.9196C6.96848 15.9389 8.14221 16.3742 9.1617 15.9614C10.181 15.5488 10.7213 14.4196 10.3087 13.4003C9.89723 12.3839 7.16469 11.0287 7.16469 11.0287V11.0288Z" fill="white"/>
<path d="M0.78 9.87956C0.78 9.87956 -0.339356 12.976 0.103785 14.0706C0.548024 15.168 1.83747 15.6474 2.93502 15.2028C4.02962 14.7597 4.54271 13.5511 4.09833 12.4535C3.65488 11.359 0.78 9.87963 0.78 9.87963V9.87956Z" fill="white"/>
<path d="M7.14066 8.94151C7.76558 8.68852 8.01388 7.95179 7.79209 7.40401C7.53789 6.77603 5.93666 5.96761 5.93666 5.96761C5.93666 5.96761 5.34805 7.66262 5.60225 8.29087C5.82403 8.83838 6.5139 9.1953 7.14067 8.94151H7.14066Z" fill="white"/>
<path d="M13.2747 8.68128C13.0205 8.0533 11.4193 7.24487 11.4193 7.24487C11.4193 7.24487 10.8307 8.93989 11.0849 9.56815C11.3067 10.1158 11.9967 10.4727 12.6233 10.219C13.2483 9.96577 13.4968 9.22903 13.2747 8.68124L13.2747 8.68128Z" fill="white"/>
<path d="M12.0525 2.63637C11.641 1.62011 8.877 0.187622 8.877 0.187622C8.877 0.187622 7.88497 3.14074 8.2964 4.15687C8.70958 5.17741 9.88614 5.61013 10.9054 5.1975C11.9215 4.78635 12.4655 3.65705 12.0525 2.63627V2.63637Z" fill="white"/>
<path d="M14.8018 14.7413C14.5476 14.1133 12.9464 13.3049 12.9464 13.3049C12.9464 13.3049 12.3578 14.9999 12.612 15.6282C12.8338 16.1758 13.5236 16.5327 14.1504 16.2788C14.7752 16.0258 15.0236 15.2891 14.8018 14.7413H14.8018Z" fill="white"/>
</svg>
